<svg width="90" height="90" viewBox="0 0 90 90" fill="none" xmlns="http://www.w3.org/2000/svg">
<path d="M71.25 33.7481C71.25 30.3008 70.571 26.8874 69.2518 23.7026C67.9326 20.5178 65.9991 17.624 63.5615 15.1865C61.124 12.749 58.2302 10.8154 55.0454 9.49621C51.8606 8.17702 48.4472 7.49805 45 7.49805C41.5528 7.49805 38.1394 8.17702 34.9546 9.49621C31.7698 10.8154 28.876 12.749 26.4384 15.1865C24.0009 17.624 22.0673 20.5178 20.7482 23.7026C19.429 26.8874 18.75 30.3008 18.75 33.7481C18.75 38.9493 20.2837 43.7868 22.8937 47.8668H22.8637L45 82.4981L67.1362 47.8668H67.11C69.8135 43.6541 71.2504 38.7536 71.25 33.7481ZM45 44.9981C42.0163 44.9981 39.1548 43.8128 37.045 41.703C34.9353 39.5932 33.75 36.7317 33.75 33.7481C33.75 30.7644 34.9353 27.9029 37.045 25.7931C39.1548 23.6833 42.0163 22.498 45 22.498C47.9837 22.498 50.8452 23.6833 52.9549 25.7931C55.0647 27.9029 56.25 30.7644 56.25 33.7481C56.25 36.7317 55.0647 39.5932 52.9549 41.703C50.8452 43.8128 47.9837 44.9981 45 44.9981Z" fill="#1F988B"/>
</svg>
